<svg xmlns="http://www.w3.org/2000/svg" width="30" height="30" viewBox="0 0 30 30" fill="none"><g clip-path="url(#clip0)"><path d="M4.98636 3.95523C5.37665 3.30723 5.75722 2.67181 6.21693 2.07038C6.96836 1.08695 8.1795 0.135805 9.42722 0.93152C10.6495 1.71095 11.6475 3.16923 12.5304 4.29781C13.6944 5.78638 11.9706 7.03466 11.6666 8.53381C11.4295 9.70438 11.6018 10.9732 11.9561 12.1007C13.2778 16.3052 18.1064 18.5038 22.0895 16.4761C22.4764 16.2789 22.1364 15.7424 21.7561 15.9055C18.8424 17.1547 15.2444 16.4389 13.3395 13.8058C12.2381 12.2832 11.3252 9.62552 12.2966 7.83266C12.8058 6.89352 13.9764 6.25495 13.7484 5.03381C13.5709 4.08552 12.5152 3.18523 11.9189 2.49695C11.1732 1.63552 10.3832 0.624091 9.29208 0.180948C7.00436 -0.749052 5.48036 2.12152 4.81093 3.88123C4.77122 3.98523 4.93179 4.04581 4.98636 3.95523Z" fill="#7C2529"/><path d="M21.1612 16.5732C21.622 16.6506 21.8083 16.5086 22.2706 16.4055C23.1598 16.2066 24.0118 16.4672 24.7658 16.9726C26.1415 17.8949 26.6346 19.6901 27.7898 20.8295C27.8249 20.8641 27.8923 20.8295 27.8755 20.7795C27.5669 19.8549 26.9943 19.0352 26.4966 18.2009C26.0775 17.4984 25.6406 16.7515 24.9583 16.2726C23.5126 15.2586 22.5029 15.4164 21.138 16.3978C21.0792 16.4404 21.0715 16.5584 21.1612 16.5732Z" fill="#7C2529"/><path d="M5.16011 3.43427C3.58811 4.29741 3.76725 6.18456 4.33268 7.62999C5.32839 10.1748 6.83382 12.6266 8.42496 14.838C9.92439 16.9226 11.6493 18.8534 13.6498 20.47C15.4435 21.9194 17.5798 23.3343 19.9815 23.0837C20.1061 23.0706 20.1524 22.8857 20.0133 22.8511C15.673 21.78 12.3927 18.8843 9.70154 15.4146C8.43954 13.7877 7.33496 12.042 6.34468 10.238C5.31439 8.36141 3.28182 5.4857 5.27096 3.57799C5.34725 3.50484 5.25011 3.38484 5.16011 3.43427Z" fill="#7C2529"/><path d="M19.6027 22.9876C21.767 23.789 24.1839 24.1968 26.375 23.225C27.9445 22.529 28.7199 20.871 27.1896 19.6019C27.0262 19.4665 26.7139 19.5882 26.7979 19.8302C27.0819 20.6499 27.4359 21.5516 26.729 22.2308C26.1096 22.8262 24.8553 23.0399 24.0407 23.1076C22.5765 23.2296 21.0747 22.9999 19.615 22.8956C19.5593 22.8916 19.5562 22.9702 19.6027 22.9876Z" fill="#7C2529"/><path d="M19.7046 23.2358C20.8595 23.6238 20.3089 24.9687 20.7929 25.7613C21.0406 26.1667 21.6178 26.2484 22.0606 26.231C22.4698 26.215 22.8652 26.0581 23.0403 25.6667C23.1855 25.3421 23.0975 25.015 23.0998 24.6753C23.1032 24.2258 23.322 23.8795 23.5769 23.5267C23.6492 23.4264 23.53 23.311 23.428 23.3333C23.0075 23.4247 22.7132 23.7021 22.5683 24.111C22.46 24.4175 22.5278 24.6761 22.5098 24.9887C22.478 25.5447 22.1215 25.7344 21.6098 25.7175C21.0409 25.6981 20.9846 25.3195 20.9012 24.8264C20.8469 24.5055 20.8055 24.1715 20.6852 23.867C20.5135 23.4321 20.2272 23.1184 19.7618 23.0293C19.6266 23.0035 19.5729 23.1915 19.7046 23.2358Z" fill="#7C2529"/><path d="M21.7523 26.1034C22.1114 26.9345 21.7574 27.5408 20.6897 27.9222C20.1343 27.8777 19.6214 27.7031 19.1503 27.3988C18.828 27.2474 18.5437 27.0717 18.2012 26.9571C17.4692 26.7128 16.6934 26.7011 15.9472 26.8954C15.2874 27.0671 14.6392 27.3845 14.2177 27.9425C13.5974 28.7637 13.7186 29.7971 12.2572 29.5128C12.1872 29.4991 12.1574 29.6005 12.2274 29.6202C12.7823 29.7754 13.4697 29.9188 13.8652 29.3782C13.9857 29.2131 13.964 28.9628 14.0543 28.7934C14.4126 28.1208 15.0689 27.5074 15.8083 27.2997C17.158 26.9202 18.178 27.5791 19.3543 28.0865C20.9772 28.7868 22.9632 27.9802 21.9889 26.0034C21.924 25.8714 21.7097 25.964 21.7523 26.1034Z" fill="#7C2529"/><path d="M9.69654 27.905V27.7433C9.69654 27.725 9.66797 27.7247 9.66797 27.7433V27.905C9.66797 27.9233 9.69654 27.9233 9.69654 27.905Z" fill="#7C2529"/><path d="M14.7967 26.7307C15.329 26.205 15.9184 26.1581 16.6239 26.1678C16.6776 26.1684 16.7076 26.0833 16.653 26.0595C15.977 25.7638 15.1553 26.1115 14.6736 26.6075C14.5956 26.6881 14.7167 26.8095 14.7967 26.7307Z" fill="#7C2529"/><path d="M15.1081 25.6955C15.5035 25.712 15.955 25.7323 16.3301 25.5898C16.3752 25.5726 16.3715 25.5023 16.3181 25.502C15.9144 25.5 15.515 25.5912 15.1081 25.5929C15.0418 25.5932 15.0424 25.6926 15.1081 25.6955Z" fill="#7C2529"/><path d="M25.6741 16.2948C26.5961 17.4599 27.2052 18.7254 27.9255 20.0091C27.9584 20.0676 28.0578 20.0285 28.0358 19.9625C27.5789 18.5959 26.6481 17.3325 25.7341 16.2348C25.6987 16.1925 25.6407 16.2528 25.6741 16.2948Z" fill="#7C2529"/><path d="M26.9574 16.8456C27.3702 17.4781 27.6716 18.1564 28.0354 18.8139C28.0742 18.8839 28.1908 18.8367 28.1659 18.7587C27.9388 18.0419 27.4765 17.3856 27.0031 16.8104C26.9819 16.785 26.9396 16.8181 26.9574 16.8456Z" fill="#7C2529"/><path d="M10.5601 0.233268C11.4989 1.58784 12.3972 3.05098 13.4915 4.28498C13.5546 4.35584 13.6681 4.2647 13.6212 4.18498C12.7901 2.77013 11.6769 1.46613 10.6835 0.161268C10.6292 0.0901256 10.5066 0.156411 10.5601 0.233268Z" fill="#7C2529"/><path d="M12.198 0.926991C12.7951 1.57671 13.2277 2.30328 13.7142 3.03042C13.7517 3.08642 13.8288 3.03842 13.8031 2.9787C13.4605 2.18928 12.8497 1.48099 12.2517 0.873562C12.2171 0.83842 12.1651 0.891277 12.198 0.926991Z" fill="#7C2529"/><path d="M4.02371 2.76427C2.68056 4.31855 2.18485 6.55027 3.11199 8.44169C3.14971 8.51884 3.27628 8.46484 3.25056 8.38341C2.63742 6.44169 2.79571 4.47855 4.11228 2.85255C4.16171 2.79112 4.07713 2.70255 4.02371 2.76427Z" fill="#7C2529"/><path d="M1.88176 6.61477C1.73233 5.9962 1.7889 5.41505 1.91318 4.79791C1.92747 4.72648 1.81976 4.6682 1.78661 4.74448C1.52233 5.35591 1.5369 6.02648 1.7009 6.66477C1.7309 6.78163 1.91004 6.7322 1.88176 6.61477Z" fill="#7C2529"/></g><defs><clipPath id="clip0"><rect width="30" height="30" fill="white"/></clipPath></defs></svg>