<svg xmlns="http://www.w3.org/2000/svg" width="30" height="30" viewBox="0 0 30 30" fill="none"><path d="M14.8002 29.4805C14.0107 26.9851 12.157 24.6407 10.8936 22.3575C9.51452 19.8653 8.44147 17.0377 6.83662 14.6927C6.61273 14.3655 6.04747 14.5566 6.16936 14.9741C6.93989 17.6185 8.58831 20.1783 9.92726 22.5757C11.2321 24.9126 12.5262 27.8283 14.5239 29.6415C14.6401 29.7467 14.8526 29.6459 14.8002 29.4805Z" fill="#7C2529"/><path d="M6.95032 15.7291C5.0559 11.4429 5.25106 6.53485 9.05727 3.33875C10.8194 1.85896 12.944 1.18412 15.2208 1.08559C17.9695 0.966538 20.1042 1.42601 21.7261 3.79096C27.8193 12.6751 19.6867 22.42 14.3531 29.296C14.0673 29.6649 14.5814 30.1891 14.8732 29.8158C20.0445 23.206 27.4719 15.347 24.1552 6.19759C23.5362 4.4898 22.5882 2.74885 21.2177 1.52485C19.7736 0.235485 17.9786 -0.0133572 16.1073 0.000537517C12.3844 0.028327 8.94801 1.30096 6.68885 4.3837C4.2478 7.71464 3.98569 12.6877 6.5979 16.001C6.76843 16.2176 7.04411 15.9413 6.95032 15.7291Z" fill="#7C2529"/><path d="M9.2645 13.4689C8.79366 11.9844 8.13808 10.24 8.61871 8.68156C8.91713 7.71398 9.69997 7.08303 10.3641 6.37187C10.9025 5.79524 11.3651 5.13556 12.082 4.75629C15.0071 3.20861 19.2744 4.81093 20.7071 7.66977C22.3107 10.869 20.5874 14.3929 17.4444 15.7957C14.4093 17.1507 10.977 15.7568 10.0104 12.5317C9.82376 11.9092 8.91839 12.1695 9.04471 12.7979C9.83134 16.7228 14.368 18.1682 17.7491 16.6732C21.1685 15.1612 23.2338 11.4122 21.7865 7.8144C20.3402 4.21977 15.8234 2.44377 12.2377 3.87272C11.3506 4.2264 10.8147 4.81314 10.204 5.51072C9.51397 6.2983 8.64334 7.00693 8.20818 7.98209C7.38966 9.81651 8.13587 11.9143 8.88587 13.6287C8.97997 13.8438 9.33492 13.6906 9.2645 13.4689Z" fill="#7C2529"/><path d="M17.7223 17.3856C19.6682 16.9362 22.8261 15.9683 22.8975 13.4695C22.9013 13.3261 22.6948 13.2699 22.6262 13.3959C22.0812 14.396 21.6574 15.2284 20.6936 15.9055C19.7914 16.539 18.7376 16.9448 17.6857 17.2523C17.6001 17.2773 17.6358 17.4055 17.7223 17.3856Z" fill="#7C2529"/><path d="M9.15146 6.14262C9.86357 5.19841 10.6843 4.44746 11.7731 3.95988C12.6902 3.54872 13.6164 3.57651 14.5657 3.35293C14.6891 3.32388 14.6768 3.1502 14.5657 3.11514C12.502 2.46146 9.8863 4.29272 8.92567 6.01062C8.84136 6.16157 9.05294 6.27367 9.15146 6.14262Z" fill="#7C2529"/><path d="M10.8106 3.56952C11.6048 3.00679 12.4695 2.59689 13.4013 2.31395C14.2382 2.06037 15.1006 2.05184 15.9428 1.85479C16.1083 1.81595 16.1203 1.53773 15.9428 1.50742C14.0853 1.19195 12.0873 2.30163 10.6941 3.41826C10.6095 3.48616 10.7216 3.63268 10.8106 3.56952Z" fill="#7C2529"/><path d="M9.0349 6.73183C7.97858 8.35341 7.67953 10.317 8.26216 12.176C8.68943 13.5399 9.80322 15.5436 11.344 15.7868C11.5745 15.8234 11.7955 15.603 11.6613 15.3737C10.9195 14.1068 9.68448 13.4146 9.16943 11.9259C8.59469 10.2652 8.83216 8.51699 9.46753 6.91436C9.57048 6.65447 9.17385 6.51773 9.0349 6.73183Z" fill="#7C2529"/><path d="M20.6239 17.2274C21.2738 17.0199 22.0159 16.4644 22.0939 15.7381C22.1028 15.657 21.9938 15.6484 21.9562 15.7008C21.7592 15.9715 21.6183 16.2674 21.3758 16.5067C21.1371 16.7423 20.8623 16.9302 20.5535 17.0606C20.4584 17.1007 20.5263 17.2586 20.6239 17.2274Z" fill="#7C2529"/></svg>